<?xml version="1.0" encoding="UTF-8"?>
<svg xmlns="http://www.w3.org/2000/svg" xmlns:xlink="http://www.w3.org/1999/xlink" width="19px" height="19px" viewBox="0 0 19 19" version="1.1">
<g id="surface1">
<path style=" stroke:none;fill-rule:evenodd;fill:rgb(0%,0%,0%);fill-opacity:1;" d="M 13.1875 1.582031 C 15.824219 1.582031 17.8125 3.734375 17.8125 6.585938 L 17.8125 12.023438 C 17.8125 13.484375 17.296875 14.800781 16.359375 15.738281 C 15.515625 16.578125 14.425781 17.019531 13.199219 17.019531 L 5.402344 17.019531 C 4.179688 17.019531 3.089844 16.578125 2.246094 15.738281 C 1.308594 14.800781 0.792969 13.484375 0.792969 12.023438 L 0.792969 6.585938 C 0.792969 3.734375 2.78125 1.582031 5.414062 1.582031 Z M 13.1875 2.769531 L 5.414062 2.769531 C 3.425781 2.769531 1.980469 4.375 1.980469 6.585938 L 1.980469 12.023438 C 1.980469 13.167969 2.371094 14.1875 3.085938 14.898438 C 3.699219 15.511719 4.5 15.832031 5.402344 15.832031 L 13.1875 15.832031 C 13.191406 15.832031 13.195312 15.832031 13.199219 15.832031 C 14.105469 15.832031 14.90625 15.511719 15.519531 14.898438 C 16.234375 14.1875 16.625 13.167969 16.625 12.023438 L 16.625 6.585938 C 16.625 4.375 15.179688 2.769531 13.1875 2.769531 Z M 14.4375 6.433594 C 14.644531 6.6875 14.605469 7.0625 14.351562 7.269531 L 10.832031 10.128906 C 10.386719 10.484375 9.855469 10.660156 9.324219 10.660156 C 8.792969 10.660156 8.265625 10.484375 7.824219 10.132812 L 4.273438 7.273438 C 4.019531 7.066406 3.976562 6.691406 4.183594 6.4375 C 4.390625 6.183594 4.761719 6.140625 5.019531 6.347656 L 8.566406 9.207031 C 9.011719 9.558594 9.640625 9.558594 10.089844 9.203125 L 13.601562 6.347656 C 13.855469 6.140625 14.230469 6.179688 14.4375 6.433594 Z M 14.4375 6.433594 "/>
</g>
</svg>
