<svg width="21" height="22" viewBox="0 0 21 22" fill="none" xmlns="http://www.w3.org/2000/svg">
<path fill-rule="evenodd" clip-rule="evenodd" d="M9.76657 2.49585C5.20826 2.49585 1.52802 6.1459 1.52802 10.6301C1.52802 15.1143 5.20826 18.7643 9.76657 18.7643C14.3249 18.7643 18.0051 15.1143 18.0051 10.6301C18.0051 6.1459 14.3249 2.49585 9.76657 2.49585ZM0.0280151 10.6301C0.0280151 5.30101 4.39639 0.99585 9.76657 0.99585C15.1368 0.99585 19.5051 5.30101 19.5051 10.6301C19.5051 15.9592 15.1368 20.2643 9.76657 20.2643C4.39639 20.2643 0.0280151 15.9592 0.0280151 10.6301Z" fill="black"/>
<path fill-rule="evenodd" clip-rule="evenodd" d="M15.4842 16.7441C15.775 16.4491 16.2499 16.4457 16.5448 16.7365L20.0689 20.2106C20.3638 20.5014 20.3672 20.9763 20.0764 21.2712C19.7856 21.5662 19.3108 21.5696 19.0158 21.2788L15.4918 17.8047C15.1968 17.5139 15.1934 17.0391 15.4842 16.7441Z" fill="black"/>
</svg>
