<?xml version="1.0" encoding="UTF-8"?>
<svg xmlns="http://www.w3.org/2000/svg" xmlns:xlink="http://www.w3.org/1999/xlink" width="19px" height="19px" viewBox="0 0 19 19" version="1.1">
<g id="surface1">
<path style=" stroke:none;fill-rule:evenodd;fill:rgb(0%,0%,0%);fill-opacity:1;" d="M 5.972656 15.796875 C 6.539062 15.796875 6.996094 16.253906 6.996094 16.820312 C 6.996094 17.386719 6.539062 17.84375 5.972656 17.84375 C 5.40625 17.84375 4.949219 17.386719 4.949219 16.820312 C 4.949219 16.253906 5.40625 15.796875 5.972656 15.796875 Z M 14.902344 15.796875 C 15.46875 15.796875 15.929688 16.253906 15.929688 16.820312 C 15.929688 17.386719 15.46875 17.84375 14.902344 17.84375 C 14.335938 17.84375 13.878906 17.386719 13.878906 16.820312 C 13.878906 16.253906 14.335938 15.796875 14.902344 15.796875 Z M 2.585938 2.382812 L 4.234375 2.667969 C 4.5 2.714844 4.699219 2.933594 4.722656 3.203125 L 4.910156 5.421875 L 5.601562 5.421875 C 5.714844 5.421875 5.824219 5.421875 5.9375 5.421875 L 7.207031 5.421875 C 7.308594 5.421875 7.40625 5.421875 7.507812 5.421875 L 8.910156 5.421875 C 8.996094 5.421875 9.085938 5.421875 9.171875 5.421875 L 10.152344 5.421875 C 10.230469 5.421875 10.308594 5.421875 10.382812 5.421875 L 11.25 5.425781 C 11.316406 5.425781 11.382812 5.425781 11.449219 5.425781 L 12.203125 5.425781 C 12.261719 5.425781 12.320312 5.425781 12.378906 5.425781 L 12.875 5.425781 C 12.925781 5.425781 12.980469 5.425781 13.03125 5.425781 L 13.601562 5.425781 C 13.648438 5.425781 13.691406 5.425781 13.734375 5.425781 L 14.21875 5.425781 C 14.257812 5.425781 14.292969 5.425781 14.328125 5.425781 L 14.636719 5.429688 C 14.671875 5.429688 14.703125 5.429688 14.734375 5.429688 L 15.074219 5.429688 C 15.101562 5.429688 15.128906 5.429688 15.152344 5.429688 L 15.363281 5.429688 C 15.386719 5.429688 15.40625 5.429688 15.425781 5.429688 L 15.652344 5.429688 C 15.671875 5.429688 15.6875 5.429688 15.703125 5.429688 L 15.835938 5.429688 C 15.847656 5.429688 15.863281 5.429688 15.875 5.429688 L 16.007812 5.433594 C 16.019531 5.433594 16.027344 5.433594 16.039062 5.433594 L 16.109375 5.433594 C 16.117188 5.433594 16.125 5.433594 16.132812 5.433594 L 16.183594 5.433594 C 16.191406 5.433594 16.195312 5.433594 16.199219 5.433594 L 16.234375 5.433594 C 16.238281 5.433594 16.242188 5.433594 16.246094 5.433594 L 16.265625 5.433594 C 16.269531 5.433594 16.273438 5.433594 16.273438 5.433594 L 16.289062 5.4375 C 16.289062 5.4375 16.292969 5.4375 16.292969 5.4375 C 16.300781 5.4375 16.300781 5.4375 16.300781 5.4375 C 16.742188 5.5 17.132812 5.730469 17.394531 6.085938 C 17.660156 6.441406 17.769531 6.875 17.707031 7.3125 L 16.957031 12.503906 C 16.816406 13.492188 15.957031 14.238281 14.960938 14.238281 L 6.3125 14.238281 C 5.269531 14.238281 4.386719 13.425781 4.304688 12.382812 L 3.578125 3.757812 L 2.386719 3.554688 C 2.0625 3.496094 1.84375 3.191406 1.902344 2.867188 C 1.957031 2.542969 2.269531 2.332031 2.585938 2.382812 Z M 5.441406 6.609375 L 5.007812 6.609375 L 5.488281 12.285156 C 5.523438 12.722656 5.878906 13.050781 6.316406 13.050781 L 14.957031 13.050781 C 15.371094 13.050781 15.722656 12.742188 15.78125 12.335938 L 16.53125 7.144531 C 16.550781 7.019531 16.519531 6.898438 16.445312 6.796875 C 16.371094 6.695312 16.261719 6.632812 16.136719 6.613281 C 16.132812 6.613281 16.117188 6.613281 16.097656 6.613281 L 16.011719 6.613281 C 15.992188 6.613281 15.972656 6.613281 15.949219 6.613281 L 15.503906 6.617188 C 15.464844 6.617188 15.425781 6.617188 15.382812 6.617188 L 14.328125 6.617188 C 14.269531 6.617188 14.210938 6.617188 14.148438 6.617188 L 12.945312 6.613281 C 12.875 6.613281 12.800781 6.613281 12.726562 6.613281 L 12.046875 6.613281 C 11.96875 6.613281 11.890625 6.613281 11.8125 6.613281 L 11.089844 6.613281 C 11.011719 6.613281 10.929688 6.613281 10.847656 6.613281 L 10.347656 6.613281 C 10.265625 6.613281 10.183594 6.613281 10.097656 6.613281 L 9.339844 6.613281 C 9.253906 6.613281 9.171875 6.613281 9.085938 6.613281 L 8.578125 6.609375 C 8.496094 6.609375 8.410156 6.609375 8.328125 6.609375 L 7.824219 6.609375 C 7.742188 6.609375 7.65625 6.609375 7.574219 6.609375 L 6.835938 6.609375 C 6.757812 6.609375 6.675781 6.609375 6.597656 6.609375 L 5.664062 6.609375 C 5.589844 6.609375 5.515625 6.609375 5.441406 6.609375 Z M 13.6875 8.347656 C 14.015625 8.347656 14.28125 8.613281 14.28125 8.941406 C 14.28125 9.269531 14.015625 9.535156 13.6875 9.535156 L 11.492188 9.535156 C 11.164062 9.535156 10.898438 9.269531 10.898438 8.941406 C 10.898438 8.613281 11.164062 8.347656 11.492188 8.347656 Z M 13.6875 8.347656 "/>
</g>
</svg>
