<?xml version="1.0" encoding="UTF-8"?>
<svg xmlns="http://www.w3.org/2000/svg" xmlns:xlink="http://www.w3.org/1999/xlink" width="19px" height="19px" viewBox="0 0 19 19" version="1.1">
<g id="surface1">
<path style=" stroke:none;fill-rule:nonzero;fill:rgb(0%,0%,0%);fill-opacity:1;" d="M 15.632812 7.253906 C 15.441406 6.285156 14.972656 5.40625 14.277344 4.707031 C 13.578125 4.011719 12.695312 3.542969 11.726562 3.351562 C 11.3125 3.269531 10.910156 3.542969 10.828125 3.957031 C 10.746094 4.375 11.019531 4.777344 11.433594 4.859375 C 12.800781 5.125 13.859375 6.179688 14.125 7.550781 C 14.195312 7.914062 14.515625 8.167969 14.875 8.167969 C 14.925781 8.167969 14.976562 8.164062 15.023438 8.15625 C 15.441406 8.074219 15.710938 7.671875 15.632812 7.253906 Z M 15.632812 7.253906 "/>
<path style=" stroke:none;fill-rule:nonzero;fill:rgb(0%,0%,0%);fill-opacity:1;" d="M 18.976562 7.308594 C 18.769531 5.449219 17.925781 3.695312 16.601562 2.375 C 15.277344 1.054688 13.527344 0.210938 11.667969 0.00390625 C 11.246094 -0.0429688 10.867188 0.261719 10.820312 0.683594 C 10.773438 1.105469 11.074219 1.484375 11.496094 1.53125 C 14.648438 1.878906 17.097656 4.328125 17.453125 7.480469 C 17.496094 7.871094 17.828125 8.160156 18.214844 8.160156 C 18.242188 8.160156 18.273438 8.160156 18.300781 8.15625 C 18.722656 8.109375 19.027344 7.730469 18.976562 7.308594 Z M 18.976562 7.308594 "/>
<path style=" stroke:none;fill-rule:nonzero;fill:rgb(0%,0%,0%);fill-opacity:1;" d="M 16.054688 11.597656 C 16.050781 11.597656 16.046875 11.597656 16.046875 11.597656 C 15.304688 11.5 14.570312 11.316406 13.871094 11.054688 C 12.984375 10.722656 11.972656 10.9375 11.300781 11.605469 C 11.300781 11.605469 11.296875 11.605469 11.296875 11.609375 L 10.660156 12.242188 C 9.078125 11.246094 7.738281 9.90625 6.738281 8.324219 L 7.375 7.6875 C 7.375 7.683594 7.378906 7.683594 7.378906 7.683594 C 8.046875 7.007812 8.261719 6 7.925781 5.113281 C 7.664062 4.414062 7.484375 3.679688 7.386719 2.9375 C 7.386719 2.933594 7.382812 2.933594 7.382812 2.929688 C 7.214844 1.726562 6.167969 0.824219 4.953125 0.835938 L 2.453125 0.835938 C 2.378906 0.835938 2.304688 0.839844 2.234375 0.84375 C 0.894531 0.964844 -0.09375 2.152344 0.0273438 3.492188 C 0.0273438 3.496094 0.0273438 3.5 0.0273438 3.503906 C 0.3125 6.1875 1.238281 8.804688 2.707031 11.070312 C 4.039062 13.167969 5.851562 14.976562 7.945312 16.308594 C 10.203125 17.773438 12.804688 18.699219 15.480469 18.988281 C 15.484375 18.988281 15.488281 18.988281 15.492188 18.988281 C 15.566406 18.996094 15.640625 19 15.714844 19 C 15.714844 19 15.71875 19 15.722656 19 C 17.066406 18.996094 18.152344 17.898438 18.148438 16.558594 L 18.148438 14.0625 C 18.175781 12.828125 17.273438 11.769531 16.054688 11.597656 Z M 16.613281 14.054688 L 16.613281 16.558594 C 16.617188 17.058594 16.214844 17.464844 15.714844 17.464844 C 15.691406 17.464844 15.664062 17.464844 15.636719 17.460938 C 13.203125 17.195312 10.832031 16.351562 8.777344 15.019531 C 8.777344 15.019531 8.773438 15.015625 8.773438 15.015625 C 6.863281 13.804688 5.214844 12.152344 4 10.246094 C 4 10.242188 4 10.242188 3.996094 10.238281 C 2.660156 8.175781 1.816406 5.792969 1.554688 3.347656 C 1.511719 2.855469 1.878906 2.417969 2.371094 2.375 C 2.398438 2.371094 2.425781 2.371094 2.453125 2.371094 L 4.957031 2.371094 C 4.960938 2.371094 4.964844 2.371094 4.972656 2.371094 C 5.417969 2.371094 5.800781 2.699219 5.863281 3.140625 C 5.976562 3.996094 6.1875 4.84375 6.488281 5.652344 C 6.613281 5.980469 6.535156 6.351562 6.289062 6.601562 L 5.230469 7.660156 C 4.984375 7.90625 4.933594 8.28125 5.105469 8.582031 C 6.363281 10.789062 8.191406 12.621094 10.402344 13.878906 C 10.703125 14.046875 11.078125 13.996094 11.324219 13.753906 L 12.382812 12.695312 C 12.628906 12.449219 13.003906 12.371094 13.332031 12.492188 C 14.140625 12.796875 14.984375 13.007812 15.839844 13.121094 C 16.292969 13.183594 16.625 13.578125 16.613281 14.035156 C 16.613281 14.039062 16.613281 14.046875 16.613281 14.054688 Z M 16.613281 14.054688 "/>
</g>
</svg>
